<?xml version="1.0" encoding="iso-8859-1"?>
<!-- Uploaded to: SVG Repo, www.svgrepo.com, Generator: SVG Repo Mixer Tools -->
<svg height="800px" width="800px" version="1.1" id="Layer_1" xmlns="http://www.w3.org/2000/svg" xmlns:xlink="http://www.w3.org/1999/xlink" 
	 viewBox="0 0 511.999 511.999" xml:space="preserve">
<path style="fill:#CC7400;" d="M383.989,193.494v-65.488c0-31.295-21.941-59.5-61.782-79.419
	c-35.139-17.569-81.383-27.245-130.213-27.245l0,0c-48.834,0-95.079,9.676-130.217,27.245C21.94,68.505,0,96.711,0,128.005v85.329
	v85.329v85.329c0,31.296,21.94,59.502,61.777,79.42c35.137,17.569,81.383,27.245,130.217,27.245l0,0
	c37.202,0,72.666-5.552,103.303-16.076c20.249,10.275,43.136,16.076,67.354,16.076c82.349,0,149.346-66.996,149.346-149.348
	C512,266.205,456.268,203.878,383.989,193.494z"/>
<g>
	<path style="fill:#FFB655;" d="M214.725,361.851c-0.927-6.718-1.418-13.572-1.418-20.54c0-7.489,0.562-14.849,1.63-22.045
		c-7.584,0.479-15.241,0.734-22.941,0.734v42.658C199.635,362.658,207.228,362.385,214.725,361.851z"/>
	<path style="fill:#FFB655;" d="M363.129,234.645c-0.158,0.004-0.314,0.024-0.475,0.024s-0.317-0.021-0.475-0.024
		c-58.603,0.259-106.201,48.003-106.201,106.666c0,58.822,47.855,106.677,106.676,106.677s106.676-47.855,106.676-106.677
		C469.329,282.649,421.731,234.904,363.129,234.645z"/>
	<path style="fill:#FFB655;" d="M252.47,442.02c-10.37-11.336-19.014-24.273-25.523-38.391c-11.48,1.121-23.176,1.698-34.953,1.698
		v42.659C212.87,447.988,233.458,445.914,252.47,442.02z"/>
	<path style="fill:#FFB655;" d="M228.762,275.201c9.322-18.804,22.486-35.377,38.465-48.683
		c-23.452,5.325-48.958,8.152-75.233,8.152v42.658C204.463,277.329,216.782,276.612,228.762,275.201z"/>
	<path style="fill:#FFB655;" d="M341.318,128.005c0-30.208-63.86-63.993-149.324-63.993v127.987
		C277.458,191.999,341.318,158.213,341.318,128.005z"/>
</g>
<g>
	<path style="fill:#EE8700;" d="M61.777,292.753c-6.92-3.461-13.288-7.176-19.107-11.109v17.019
		c0,30.208,63.858,63.993,149.322,63.993l0,0v-42.658l0,0C143.159,320,96.915,310.323,61.777,292.753z"/>
	<path style="fill:#EE8700;" d="M61.777,378.083c-6.92-3.461-13.288-7.176-19.107-11.109v17.017
		c0,30.208,63.858,63.995,149.322,63.995l0,0v-42.659l0,0C143.159,405.329,96.914,395.652,61.777,378.083z"/>
	<path style="fill:#EE8700;" d="M61.777,207.426c-6.92-3.461-13.288-7.176-19.107-11.109v17.019
		c0,30.208,63.858,63.993,149.322,63.993l0,0v-42.658l0,0C143.159,234.67,96.915,224.995,61.777,207.426z"/>
	<path style="fill:#EE8700;" d="M42.671,128.005c0,30.208,63.858,63.993,149.322,63.993l0,0V64.012l0,0
		C106.529,64.012,42.671,97.797,42.671,128.005z"/>
</g>
</svg>