<?xml version="1.0" ?><!-- Uploaded to: SVG Repo, www.svgrepo.com, Generator: SVG Repo Mixer Tools -->
<svg width="800px" height="800px" viewBox="0 0 64 64" data-name="Layer 1" id="Layer_1" xmlns="http://www.w3.org/2000/svg"><defs><style>
      .cls-1 {
        fill: #a3cef1;
      }

      .cls-2 {
        fill: #606c38;
      }

      .cls-3 {
        fill: #6096ba;
      }

      .cls-4 {
        fill: #274c77;
      }
    </style></defs><rect class="cls-4" height="5" width="4" x="29" y="53"/><circle class="cls-1" cx="33.66" cy="21.68" r="15"/><path class="cls-4" d="M28.83,49v-4.84c1.32,.29,2.66,.46,4,.5v4.34"/><path class="cls-3" d="M17.4,5.41c-8.98,8.98-8.98,23.54,0,32.53s23.54,8.98,32.53,0l-2.83-2.83c-7.42,7.42-19.45,7.42-26.87,0-7.42-7.42-7.42-19.45,0-26.87"/><rect class="cls-2" height="4" rx="2" ry="2" width="10" x="25.83" y="49"/><path class="cls-2" d="M26.83,58h8c2.21,0,4,1.79,4,4h-16c0-2.21,1.79-4,4-4Z"/><path class="cls-2" d="M19.7,16.2l12.55,12.55c.78,.78,1.8,1.17,2.83,1.17,1.03,0,2.05-.4,2.83-1.17,1.56-1.56,1.56-4.09,0-5.66l-4.95-4.95c-.59-.59-.88-1.36-.88-2.12s.29-1.53,.88-2.12c1.17-1.17,3.07-1.17,4.24,0l.71,.71c.78,.78,2.05,.78,2.83,0l3.54-3.54h0c-5.86-5.86-15.36-5.86-21.21,0-1.51,1.51-2.63,3.26-3.36,5.13h0Z"/><path class="cls-4" d="M26.27,8.62c-1.15,.65-2.23,1.47-3.21,2.45h0s-5.66-5.66-5.66-5.66c-.78-.78-.78-2.05,0-2.83s2.05-.78,2.83,0l6.04,6.04h0Z"/><path class="cls-4" d="M46.72,29.07c-.66,1.15-1.47,2.23-2.45,3.21h0s5.66,5.66,5.66,5.66c.39,.39,.9,.59,1.41,.58,.52,0,1.03-.19,1.41-.58,.78-.78,.78-2.05,0-2.83l-6.04-6.04h0Z"/></svg>