<?xml version="1.0" encoding="iso-8859-1"?>
<!-- Uploaded to: SVG Repo, www.svgrepo.com, Generator: SVG Repo Mixer Tools -->
<svg height="800px" width="800px" version="1.1" id="Layer_1" xmlns="http://www.w3.org/2000/svg" xmlns:xlink="http://www.w3.org/1999/xlink" 
	 viewBox="0 0 512 512" xml:space="preserve">
<path style="fill:#DBE9FD;" d="M406.261,122.435V16.696C406.261,7.473,398.782,0,389.565,0h-267.13
	c-9.217,0-16.696,7.473-16.696,16.696v105.739c0,3.401,0.287,6.731,0.51,10.076H405.75
	C405.974,129.165,406.261,125.836,406.261,122.435z"/>
<path style="fill:#C5DCFD;" d="M389.565,0H256v132.511h149.751c0.224-3.346,0.51-6.675,0.51-10.076V16.696
	C406.261,7.473,398.782,0,389.565,0z"/>
<path style="fill:#DBE9FD;" d="M389.565,512h-267.13c-9.217,0-16.696-7.473-16.696-16.696V389.565
	c0-82.853,67.403-150.261,150.261-150.261s150.261,67.408,150.261,150.261v105.739C406.261,504.527,398.782,512,389.565,512z"/>
<path style="fill:#C5DCFD;" d="M389.565,512c9.217,0,16.696-7.473,16.696-16.696V389.565c0-82.853-67.403-150.261-150.261-150.261
	V512H389.565z"/>
<g>
	<path style="fill:#EFBE44;" d="M256,311.652c-9.217,0-16.696-7.473-16.696-16.696v-33.391c0-9.223,7.479-16.696,16.696-16.696
		s16.696,7.473,16.696,16.696v33.391C272.696,304.179,265.217,311.652,256,311.652z"/>
	<path style="fill:#EFBE44;" d="M256,411.826c-9.217,0-16.696-7.473-16.696-16.696v-33.391c0-9.223,7.479-16.696,16.696-16.696
		s16.696,7.473,16.696,16.696v33.391C272.696,404.353,265.217,411.826,256,411.826z"/>
</g>
<path style="fill:#E4A738;" d="M272.696,395.13v-33.391c0-9.223-7.479-16.696-16.696-16.696v66.783
	C265.217,411.826,272.696,404.353,272.696,395.13z"/>
<path style="fill:#EFBE44;" d="M389.565,512h-267.13c-7.032,0-13.304-4.402-15.696-11.011c-2.392-6.609-0.392-14.011,5.011-18.511
	l112.185-93.489l0,0c18.587-15.478,45.544-15.478,64.13,0l112.186,93.49c5.403,4.5,7.402,11.902,5.011,18.511
	C402.871,507.599,396.597,512,389.565,512z"/>
<path style="fill:#E4A738;" d="M389.565,512c7.032,0,13.304-4.402,15.696-11.011c2.392-6.609,0.392-14.011-5.011-18.511
	l-112.185-93.489c-9.294-7.739-20.679-11.609-32.066-11.609V512H389.565z"/>
<path style="fill:#6E6057;" d="M422.957,512H89.043c-9.217,0-16.696-7.473-16.696-16.696s7.479-16.696,16.696-16.696h333.913
	c9.217,0,16.696,7.473,16.696,16.696S432.174,512,422.957,512z"/>
<path style="fill:#615349;" d="M422.957,478.609H256V512h166.957c9.217,0,16.696-7.473,16.696-16.696
	S432.174,478.609,422.957,478.609z"/>
<path style="fill:#EFBE44;" d="M106.249,132.511C111.6,212.548,178.195,272.696,256,272.696
	c77.899,0,144.406-60.254,149.751-140.184H106.249z"/>
<path style="fill:#E4A738;" d="M256,272.696c77.899,0,144.406-60.252,149.751-140.184H256V272.696z"/>
<path style="fill:#6E6057;" d="M422.957,33.391H89.043c-9.217,0-16.696-7.473-16.696-16.696S79.826,0,89.043,0h333.913
	c9.217,0,16.696,7.473,16.696,16.696S432.174,33.391,422.957,33.391z"/>
<path style="fill:#615349;" d="M422.957,0H256v33.391h166.957c9.217,0,16.696-7.473,16.696-16.696S432.174,0,422.957,0z"/>
<path style="fill:#E4A738;" d="M272.696,294.957v-33.391c0-9.223-7.479-16.696-16.696-16.696v66.783
	C265.217,311.652,272.696,304.179,272.696,294.957z"/>
</svg>