<?xml version="1.0" encoding="iso-8859-1"?>
<!-- Uploaded to: SVG Repo, www.svgrepo.com, Generator: SVG Repo Mixer Tools -->
<svg height="800px" width="800px" version="1.1" id="Layer_1" xmlns="http://www.w3.org/2000/svg" xmlns:xlink="http://www.w3.org/1999/xlink" 
	 viewBox="0 0 512.002 512.002" xml:space="preserve">
<path style="fill:#007BC7;" d="M193.872,64.802c-28.27,7.674-47.895,33.337-47.895,62.63c0,7.632,0,295.101,0,302.99h67.194V167.413
	l193.393-52.5V341.44h67.194c0-6.737,0-306.249,0-305.109c0-11.316-5.273-21.986-14.261-28.86
	c-8.988-6.874-20.668-9.167-31.589-6.202L193.872,64.802z"/>
<ellipse transform="matrix(-0.2482 -0.9687 0.9687 -0.2482 132.0572 825.3543)" style="fill:#00558A;" cx="386.3" cy="361.434" rx="59.306" ry="89.222"/>
<path style="fill:#0093ED;" d="M309.868,33.313L193.872,64.802c-28.27,7.674-47.895,33.336-47.895,62.63c0,7.632,0,295.101,0,302.99
	h67.194V167.413l96.696-26.25V33.313H309.868z"/>
<ellipse transform="matrix(-0.2482 -0.9687 0.9687 -0.2482 -279.4196 683.9767)" style="fill:#006CB0;" cx="125.701" cy="450.415" rx="59.306" ry="89.222"/>
</svg>