<!DOCTYPE svg PUBLIC "-//W3C//DTD SVG 1.1//EN" "http://www.w3.org/Graphics/SVG/1.1/DTD/svg11.dtd">
<!-- Uploaded to: SVG Repo, www.svgrepo.com, Transformed by: SVG Repo Mixer Tools -->
<svg height="800px" width="800px" version="1.1" id="Layer_1" xmlns="http://www.w3.org/2000/svg" xmlns:xlink="http://www.w3.org/1999/xlink" viewBox="0 0 392.404 392.404" xml:space="preserve" fill="#000000">
<g id="SVGRepo_bgCarrier" stroke-width="0"/>
<g id="SVGRepo_tracerCarrier" stroke-linecap="round" stroke-linejoin="round"/>
<g id="SVGRepo_iconCarrier"> <circle style="fill:#b33737;" cx="196.461" cy="196.267" r="35.62"/> <path style="fill:#64a3dd;" d="M365.899,97.616C350.578,71.24,309.85,69.107,262.4,81.261C248.954,34.069,226.65,0,196.202,0 s-52.752,34.069-66.198,81.196C82.554,69.042,41.891,71.24,26.505,97.552c-15.386,26.505,3.103,63.224,37.56,98.651 c-34.392,35.491-52.945,72.145-37.56,98.65c15.321,26.376,56.048,28.509,103.499,16.356c13.382,47.127,35.685,81.196,66.198,81.196 s52.752-34.069,66.198-81.196c47.515,12.154,88.178,9.956,103.499-16.356c15.386-26.505-3.103-63.224-37.56-98.651 C362.796,160.776,381.285,124.121,365.899,97.616z M347.022,108.541c8.275,14.222-4.331,41.891-34.263,72.727 c-11.572-10.408-24.372-20.687-37.818-30.319c-1.616-16.873-4.008-33.228-7.37-48.743 C308.881,91.733,338.747,94.448,347.022,108.541z M225.875,247.337c-10.02,5.883-20.04,11.119-29.673,15.903 c-9.762-4.784-19.653-10.02-29.673-15.903c-9.956-5.818-19.394-11.766-28.186-17.778c-0.776-10.667-1.164-21.786-1.164-33.293 s0.388-22.626,1.164-33.293c8.857-6.012,18.23-11.96,28.186-17.778c10.02-5.883,20.04-11.119,29.673-15.903 c9.762,4.784,19.653,10.02,29.673,15.903c9.956,5.818,19.394,11.766,28.186,17.778c0.776,10.667,1.164,21.786,1.164,33.293 s-0.388,22.626-1.164,33.293C245.269,235.572,235.83,241.519,225.875,247.337z M251.345,257.358 c-1.228,9.438-2.78,18.36-4.59,26.828c-8.145-2.715-16.614-5.883-25.277-9.438c5.172-2.78,10.279-5.624,15.386-8.598 C241.713,263.37,246.562,260.396,251.345,257.358z M170.925,274.747c-8.727,3.62-17.131,6.723-25.277,9.438 c-1.745-8.404-3.297-17.39-4.59-26.828c4.784,3.038,9.632,5.947,14.545,8.792C160.582,269.123,165.754,271.968,170.925,274.747z M115.588,213.204c-7.24-5.624-14.093-11.378-20.299-16.937c6.271-5.624,13.059-11.313,20.299-16.937 c-0.259,5.624-0.323,11.313-0.323,16.937S115.394,207.58,115.588,213.204z M141.059,135.176c1.228-9.438,2.78-18.36,4.59-26.828 c8.145,2.715,16.614,5.883,25.277,9.438c-5.172,2.78-10.279,5.624-15.386,8.598C150.691,129.164,145.842,132.137,141.059,135.176z M221.479,117.786c8.727-3.62,17.131-6.723,25.277-9.438c1.745,8.404,3.297,17.39,4.59,26.828 c-4.784-3.038-9.632-5.947-14.545-8.792C231.822,123.41,226.65,120.566,221.479,117.786z M276.816,179.329 c7.24,5.624,14.093,11.378,20.299,16.937c-6.271,5.624-13.059,11.313-20.299,16.937c0.259-5.624,0.323-11.313,0.323-16.937 C277.075,190.642,277.01,184.954,276.816,179.329z M196.202,21.786c16.356,0,33.745,24.566,45.446,65.422 c-14.933,4.848-30.19,10.99-45.446,17.907c-15.192-7.046-30.513-13.059-45.446-17.907C162.457,46.352,179.846,21.786,196.202,21.786 z M45.382,108.541c8.21-14.158,38.141-16.873,79.451-6.4c-3.297,15.515-5.818,32-7.37,48.743 c-13.511,9.632-26.246,19.846-37.818,30.319C49.778,150.432,37.107,122.764,45.382,108.541z M45.382,283.992 c-8.275-14.222,4.331-41.826,34.263-72.727c11.572,10.408,24.372,20.687,37.818,30.319c1.616,16.873,4.008,33.228,7.37,48.743 C83.523,300.8,53.657,298.085,45.382,283.992z M196.202,370.747c-16.356,0-33.745-24.566-45.446-65.422 c14.933-4.848,30.19-10.99,45.446-17.907c15.192,7.046,30.513,13.059,45.446,17.907 C229.947,346.182,212.558,370.747,196.202,370.747z M347.022,283.992c-8.21,14.158-38.141,16.873-79.451,6.4 c3.297-15.515,5.818-32,7.37-48.743c13.511-9.632,26.246-19.846,37.818-30.319C342.626,242.101,355.297,269.77,347.022,283.992z"/> </g>
</svg>