<?xml version="1.0" encoding="iso-8859-1"?>
<!-- Uploaded to: SVG Repo, www.svgrepo.com, Generator: SVG Repo Mixer Tools -->
<svg version="1.1" id="Layer_1" xmlns="http://www.w3.org/2000/svg" xmlns:xlink="http://www.w3.org/1999/xlink" 
	 viewBox="0 0 512 512" xml:space="preserve">
<path style="fill:#62C9CC;" d="M494.283,388.462L367.08,261.259c-3.118-3.117-8.173-3.117-11.29,0l-79.031,79.031
	c-3.118,3.119-3.118,8.173,0,11.291l127.203,127.203c10.895,10.894,25.205,16.341,39.516,16.341s28.621-5.447,39.516-16.341
	l11.29-11.29c0,0,0,0,0-0.001c10.555-10.555,16.368-24.589,16.368-39.516S504.838,399.017,494.283,388.462z M427.295,438.892
	c-3.719-3.719-5.767-8.665-5.767-13.924c0-10.734,8.956-19.683,19.692-19.683c5.042,0,10.086,1.92,13.925,5.759
	c7.678,7.678,7.678,20.17,0,27.848C447.465,446.569,434.972,446.569,427.295,438.892z"/>
<path style="fill:#50A9A9;" d="M367.08,261.259c-3.118-3.117-8.173-3.117-11.29,0l-79.031,79.031c-3.118,3.119-3.118,8.173,0,11.291
	l38.304,38.304l90.322-90.322L367.08,261.259z"/>
<path style="fill:#62C9CC;" d="M427.295,189.001l-43.811-43.811L161.443,367.232l43.812,43.812
	c7.54,7.538,17.563,11.691,28.226,11.691s20.687-4.152,28.226-11.691l165.589-165.589c7.54-7.539,11.691-17.563,11.691-28.226
	C438.986,206.565,434.834,196.541,427.295,189.001z"/>
<path style="fill:#F2F2F2;" d="M240.63,2.338c-3.118-3.117-8.173-3.117-11.29,0L18.59,213.088c-1.498,1.498-2.339,3.528-2.339,5.646
	s0.841,4.147,2.339,5.646l129.868,129.868l222.041-222.041L240.63,2.338z"/>
<g>
	<path style="fill:#B2B2B2;" d="M265.093,256.824c-2.043,0-4.086-0.779-5.645-2.338L235.363,230.4
		c-3.118-3.119-3.118-8.173,0-11.291c3.118-3.118,8.173-3.116,11.29,0l24.085,24.086c3.118,3.119,3.118,8.173,0,11.291
		C269.179,256.045,267.136,256.824,265.093,256.824z"/>
	<path style="fill:#B2B2B2;" d="M310.253,211.663c-2.043,0-4.086-0.779-5.645-2.338l-42.15-42.15c-3.118-3.119-3.118-8.173,0-11.291
		c3.118-3.117,8.173-3.117,11.29,0l42.15,42.15c3.118,3.119,3.118,8.173,0,11.291C314.34,210.883,312.296,211.663,310.253,211.663z"
		/>
	<path style="fill:#B2B2B2;" d="M212.405,309.511c-2.043,0-4.086-0.779-5.645-2.338l-31.613-31.612
		c-3.118-3.119-3.118-8.173,0-11.291c3.118-3.117,8.173-3.117,11.29,0l31.613,31.612c3.118,3.119,3.118,8.173,0,11.291
		C216.491,308.732,214.449,309.511,212.405,309.511z"/>
</g>
<rect x="253.743" y="100.052" transform="matrix(-0.7071 -0.7071 0.7071 -0.7071 284.8069 632.0853)" style="fill:#999999;" width="39.139" height="314.009"/>
<path style="fill:#62C9CC;" d="M427.295,189.001l-29.12-29.12L176.134,381.922l29.121,29.121
	c7.54,7.538,17.563,11.691,28.226,11.691s20.687-4.152,28.226-11.691l165.589-165.589c7.54-7.539,11.691-17.563,11.691-28.226
	C438.986,206.565,434.834,196.541,427.295,189.001z"/>
<path style="fill:#E5E5E5;" d="M113.051,268.381c9.24,0,17.927-3.598,24.462-10.133c8.704-8.705,11.791-20.933,9.261-32.137
	l21.598,21.599c6.535,6.535,15.223,10.134,24.462,10.134s17.927-3.598,24.462-10.134c6.535-6.535,10.132-15.222,10.132-24.461
	s-3.598-17.927-10.132-24.462l-29.097-29.097c2.481,0.557,5.041,0.843,7.646,0.843c9.239,0,17.927-3.598,24.462-10.132
	c8.704-8.705,11.791-20.932,9.261-32.136l5.04,5.041c6.527,6.525,15.214,10.12,24.461,10.12c9.248,0,17.936-3.595,24.463-10.123
	c13.486-13.488,13.486-35.434-0.001-48.924l-68.425-67.81L30.702,200.975l57.886,57.273
	C95.124,264.782,103.811,268.381,113.051,268.381z"/>
<g>
	<path style="fill:#EB6836;" d="M113.051,257.736c6.397,0,12.413-2.492,16.935-7.015c9.338-9.338,9.338-24.532,0-33.871
		l-12.042-12.042c-3.112-3.114-3.112-8.179,0-11.291c3.112-3.115,8.179-3.112,11.286-0.004l46.67,46.67
		c4.524,4.524,10.538,7.016,16.935,7.016c6.397,0,12.413-2.492,16.935-7.015c4.524-4.524,7.015-10.538,7.015-16.935
		c0-6.397-2.492-12.411-7.015-16.935l-54.193-54.193c-3.247-3.245-3.03-8.728,0.458-11.712c3.123-2.672,7.93-2.479,10.834,0.425
		l12.041,12.041c4.524,4.524,10.538,7.016,16.936,7.016c6.397,0,12.411-2.492,16.935-7.015c9.338-9.338,9.338-24.532,0-33.871
		l-13.603-13.602c-3.058-3.118-3.04-8.141,0.054-11.236c3.114-3.114,8.177-3.114,11.29-0.001l31.613,31.614
		c9.338,9.336,24.532,9.337,33.871-0.001c9.336-9.337,9.336-24.532,0-33.871l-68.429-67.809L38.226,193.452l57.89,57.268
		C100.64,255.245,106.654,257.736,113.051,257.736z"/>
	<path style="fill:#EB6836;" d="M77.534,318.372c-3.134-4.322-9.791-4.322-12.926,0C58.134,327.3,1.349,406.62,1.349,442.279
		C1.349,480.723,32.626,512,71.071,512s69.721-31.277,69.721-69.721C140.792,406.62,84.008,327.3,77.534,318.372z"/>
</g>
<path style="fill:#C74B38;" d="M87.037,496.033c-38.445,0-69.721-31.277-69.721-69.721c0-28.598,36.519-85.271,54.322-111.201
	c-0.188-0.014-0.377-0.034-0.567-0.034c-2.558,0-4.961,1.225-6.462,3.297C58.134,327.3,1.349,406.62,1.349,442.279
	C1.349,480.723,32.626,512,71.071,512c23.289,0,43.933-11.49,56.602-29.086C116.222,491.157,102.193,496.033,87.037,496.033z"/>
<g>
	<circle style="fill:#FD9D7E;" cx="79.589" cy="465.696" r="19.16"/>
	<circle style="fill:#FD9D7E;" cx="96.621" cy="423.118" r="12.773"/>
</g>
</svg>