<svg width="20" height="20" viewBox="0 0 20 20" fill="none" xmlns="http://www.w3.org/2000/svg">
<path d="M6.25 1V2.5M2.5 6.25H1M19 6.25H17.5M2.5 10H1M19 10H17.5M2.5 13.75H1M19 13.75H17.5M6.25 17.5V19M10 1V2.5M10 17.5V19M13.75 1V2.5M13.75 17.5V19M4.75 17.5H15.25C15.8467 17.5 16.419 17.2629 16.841 16.841C17.2629 16.419 17.5 15.8467 17.5 15.25V4.75C17.5 4.15326 17.2629 3.58097 16.841 3.15901C16.419 2.73705 15.8467 2.5 15.25 2.5H4.75C4.15326 2.5 3.58097 2.73705 3.15901 3.15901C2.73705 3.58097 2.5 4.15326 2.5 4.75V15.25C2.5 15.8467 2.73705 16.419 3.15901 16.841C3.58097 17.2629 4.15326 17.5 4.75 17.5ZM5.5 5.5H14.5V14.5H5.5V5.5Z" stroke="black" stroke-width="1.5" stroke-linecap="round" stroke-linejoin="round"/>
</svg>
